<?xml version="1.0" encoding="UTF-8" standalone="no"?>
<svg width="400" height="400" version="1.0" xmlns:xlink="http://www.w3.org/1999/xlink"
  xmlns="http://www.w3.org/2000/svg" xmlns:svg="http://www.w3.org/2000/svg"
  xmlns:rdf="http://www.w3.org/1999/02/22-rdf-syntax-ns#" xmlns:cc="http://creativecommons.org/ns#"
  xmlns:dc="http://purl.org/dc/elements/1.1/">
  <style id="current-color-scheme" type="text/css">
    .ColorScheme-Background {
      color: #1d212f;
    }

    .ColorScheme-Highlight {
      color: green;
    }
  </style>
  <defs>
    <style type="text/css" />
    <radialGradient xlink:href="#shadow" id="shadowRadialGradientTopRight" cx="44.500065" cy="927.63037" fx="44.500065"
      fy="927.63037" r="8.0000095" gradientUnits="userSpaceOnUse"
      gradientTransform="matrix(8.6249783,1.3624911e-6,-1.0176724e-6,8.6249707,181.18885,-7895.7849)" />
    <linearGradient xlink:href="#shadow" id="shadowLinearGradientTop" gradientUnits="userSpaceOnUse"
      gradientTransform="matrix(4.7857218,0,0,0.40025924,4190.3118,-247.38732)" x1="-917.58612" y1="-35.146854"
      x2="-903.16821" y2="-35.146854" />
    <radialGradient xlink:href="#shadow" id="shadowRadialGradientBottomRight" cx="51" cy="950.40363" fx="51"
      fy="950.40363" r="6.7500024"
      gradientTransform="matrix(3.4997498e-5,10.223233,-10.222228,2.1640405e-7,9983.2404,-229.38507)"
      gradientUnits="userSpaceOnUse" />
    <linearGradient y2="-47.917294" x2="965.94427" y1="-47.917294" x1="951.52637"
      gradientTransform="matrix(4.7857128,0,0,0.2505758,-4437.732,-552.73792)" gradientUnits="userSpaceOnUse"
      id="shadowLinearGradientBottom" xlink:href="#shadow" />
    <radialGradient gradientUnits="userSpaceOnUse"
      gradientTransform="matrix(0,10.222219,-10.221214,-3.4774205e-5,10279.279,-405.30011)" r="6.7500024" fy="950.40363"
      fx="51" cy="950.40363" cx="51" id="shadowRadialGradientBottomLeft" xlink:href="#shadow" />
    <linearGradient xlink:href="#shadow" id="shadowLinearGradientRight" gradientUnits="userSpaceOnUse"
      gradientTransform="matrix(1.1964286,0,0,0.17241245,516.19645,-48.337028)" x1="40.791058" y1="932.86218"
      x2="98.462669" y2="932.86206" />
    <radialGradient gradientTransform="matrix(8.6249922,1.3624946e-6,-1.017674e-6,8.6249929,181.18823,-7895.8054)"
      gradientUnits="userSpaceOnUse" r="8.0000095" fy="927.63037" fx="44.500065" cy="927.63037" cx="44.500065"
      id="shadowRadialGradientTopLeft" xlink:href="#shadow" />
    <linearGradient y2="932.86188" x2="98.462669" y1="932.86218" x1="40.791058"
      gradientTransform="matrix(1.1964286,0,0,0.17241414,516.19645,-48.338579)" gradientUnits="userSpaceOnUse"
      id="shadowLinearGradientLeft" xlink:href="#shadow" />
    <linearGradient id="shadow">
      <stop style="stop-color:#000000;stop-opacity:0.549" offset="0" />
      <stop style="stop-color:#000000;stop-opacity:0.549" offset="0.05633803" />
      <stop style="stop-color:#000000;stop-opacity:0.486" offset="0.12676056" />
      <stop style="stop-color:#000000;stop-opacity:0.424" offset="0.1971831" />
      <stop style="stop-color:#000000;stop-opacity:0.333" offset="0.26760563" />
      <stop style="stop-color:#000000;stop-opacity:0.275" offset="0.33802816" />
      <stop style="stop-color:#000000;stop-opacity:0.212" offset="0.40845069" />
      <stop style="stop-color:#000000;stop-opacity:0.153" offset="0.47887325" />
      <stop style="stop-color:#000000;stop-opacity:0.11" offset="0.54929578" />
      <stop style="stop-color:#000000;stop-opacity:0.067" offset="0.61971831" />
      <stop style="stop-color:#000000;stop-opacity:0.039" offset="0.69014084" />
      <stop style="stop-color:#000000;stop-opacity:0.016" offset="0.8309859" />
      <stop style="stop-color:#000000;stop-opacity:0;" offset="1" />
    </linearGradient>
  </defs>
  <g transform="translate(0,-160)">
    /* focused */
    <g transform="translate(0,0)">
      <g id="decoration-top" transform="matrix(12.083326,0,0,1,-2971.2481,3)">
        /* shadow */
        <rect transform="matrix(0,-1,-1,0,0,0)" style="opacity:1;fill:url(#shadowLinearGradientTop);" width="44"
          height="12" x="-176" y="-267" />

        /* background */
        <rect transform="rotate(90)" style="opacity:1;fill:currentColor;" width="26" height="11.999996" x="176" y="-267"
          class="ColorScheme-Background" />

        /* border */
        <rect y="-267" x="175" height="12" width="1" style="opacity:1;fill:currentColor;" transform="rotate(90)"
          class="ColorScheme-Highlight" />
      </g>

      <g id="decoration-topright" transform="translate(-309,99)">
        /* shadow */
        <path style="opacity:1;fill:url(#shadowRadialGradientTopRight);"
          d="m 564,36 v 44 l 12.99998,1e-5 h 1 c 2.23664,0 4,1.77972 4,4 L 582,106 h 54 l -2e-5,-21.99999 -1e-5,-48 z" />

        /* background */
        <path d="m 564,80 v 26 h 18 V 84 c 0,-2.22028 -1.86709,-4 -4.23529,-4 z" style="opacity:1;fill:currentColor;"
          class="ColorScheme-Background" />

        /* border */
        <path style="opacity:1; fill:currentColor;"
          d="m 564,79 v 1.038462 h 13.72222 c 2.3609,0 4.22222,1.84817 4.22222,4.153846 V 106 H 583 V 84.192308 C 583,81.336797 580.64306,79 577.72222,79 Z"
          class="ColorScheme-Highlight" />
      </g>

      <g id="decoration-bottom" transform="matrix(24.166654,0,0,1.0000002,-13374.993,175.99995)">
        /* shadow */
        <rect transform="rotate(90)" style="opacity:1;fill:url(#shadowLinearGradientBottom);" width="66.999947"
          height="6.0000033" x="120.00002" y="-564" />

        /* background */
        <g transform="matrix(0.18749985,0,0,0.66666287,554.43751,-516.23783)">
          <rect transform="rotate(90)" style="opacity:1;fill:currentColor;" width="7.500041" height="31.999975"
            x="946.86218" y="-51.000019" class="ColorScheme-Background" />

          /* border */
          <rect y="-50.999985" x="954.36224" height="32.000008" width="1.5000083" style="opacity:1;fill:currentColor;"
            transform="rotate(90)" class="ColorScheme-Highlight" />
        </g>
      </g>

      <g id="decoration-bottomleft" transform="matrix(-1,0,0,1,674,176)">
        /* shadow */
        <path style="opacity:1;fill:url(#shadowRadialGradientBottomLeft);"
          d="m 581.99996,115 c 4e-5,3.27015 -1.32262,5.00006 -4,5.00005 L 566,120.00002 564,120 v 66.99998 l 2.00003,3e-5 70,-2e-5 L 636,115 Z" />

        /* background */
        <path style="opacity:1;fill:currentColor;" d="m 564,115 v 5 h 14 c 3.5904,0 4,-3 4,-5 h -4 z"
          class="ColorScheme-Background" />

        /* border */
        <path d="m 583,115 c 0,4 -1.83831,6 -5,6 h -14 v -1 h 14 c 2.078,0 4,-1 4,-5 z"
          style="opacity:1; fill:currentColor;  " class="ColorScheme-Highlight" />
      </g>

      <g id="decoration-right" transform="matrix(1,0,0,17.199966,-309,-1686.9962)">
        /* shadow */
        <rect style="opacity:1;fill:url(#shadowLinearGradientRight);" width="54" height="5.0000062" x="582" y="110" />

        /* background */
        <rect transform="rotate(90)" style="opacity:1;fill:currentColor;" width="5.0000024" height="18.000122"
          x="110.00001" y="-582.00012" ry="0.00012207031" class="ColorScheme-Background" />

        /* border */
        <rect y="-583" x="110" height="1" width="5.0000167" style="opacity:1;fill:currentColor;" transform="rotate(90)"
          class="ColorScheme-Highlight" />
      </g>

      <g id="decoration-bottomright" transform="translate(-12)">
        /* shadow */
        <path
          d="M 285.00012,291.00002 C 285,294 283.54641,296.00006 280.99996,296.00005 L 269,296.00002 267,296 v 66.99998 l 2.00003,3e-5 70,-2e-5 L 339,291 Z"
          style="opacity:1;fill:url(#shadowRadialGradientBottomRight);" />

        /* background */
        <path d="m 267,291 v 5 h 14 c 2.53045,0 4,-1.7833 4,-5 h -4.23529 z" style="opacity:1;fill:currentColor;"
          class="ColorScheme-Background" />

        /* border */
        <path
          d="m 285.00012,291.00002 c 0,4 -2.32212,4.99998 -4.10012,4.99998 H 267 v 1 h 13.9 v 0 c 3.1,0 5.1,-2 5.1,-6 z"
          style="opacity:1; fill:currentColor;  " class="ColorScheme-Highlight" />
      </g>

      <g id="decoration-topleft" transform="matrix(-1,0,0,1,674,99)">
        /* shadow */
        <path
          d="m 564,36 v 44 l 12.99998,1e-5 h 1 c 2.23664,0 4,1.77972 4,4 L 582,106 h 54 l -2e-5,-21.99999 -1e-5,-48 z"
          style="opacity:1;fill:url(#shadowRadialGradientTopLeft);" />
        /* background */
        <path
          d="M 577.72222,79 C 580.64306,79 583,81.336814 583,84.192344 v 21.807846 h -1.05556 V 84.192344 c 0,-2.305691 -1.86132,-4.153875 -4.22222,-4.153875 H 564 V 79 Z"
          style="opacity:1; fill:currentColor;  " class="ColorScheme-Highlight" />
        /* border */
        <path style="opacity:1;fill:currentColor;"
          d="m 563.99999,80.000005 v 26.000005 h 18 V 84.000005 c 0,-2.22028 -1.76336,-4 -4,-4 z"
          class="ColorScheme-Background" />
      </g>

      <g id="decoration-left" transform="matrix(-1,0,0,17.199966,674,-1686.9962)">
        /* shadow */
        <rect y="110" x="582" height="5.0000062" width="54" style="opacity:1;fill:url(#shadowLinearGradientLeft);" />
        /* background */
        <rect y="-582" x="110.00001" height="18" width="5.0000024" style="opacity:1;fill:currentColor;"
          transform="rotate(90)" class="ColorScheme-Background" />
        /* border */
        <rect transform="rotate(90)" style="opacity:1;fill:currentColor;" width="5.0000057" height="1" x="110" y="-583"
          class="ColorScheme-Highlight" />
      </g>

      <g id="decoration-center">
        <rect transform="rotate(90)" style="opacity:1;fill:currentColor;" width="86.000008" height="145" x="205"
          y="-254.99998" class="ColorScheme-Background" />
      </g>
    </g>

    /* inactive */
    <g transform="translate(0,150)">
      <g id="decoration-inactive-top" transform="matrix(12.083326,0,0,1,-2971.2481,3)">
        /* no shadow */
        <rect transform="matrix(0,-1,-1,0,0,0)" style="opacity:0;" width="44" height="12" x="-176" y="-267" />

        /* background */
        <rect transform="rotate(90)" style="opacity:1;fill:currentColor;" width="26" height="11.999996" x="176" y="-267"
          class="ColorScheme-Background" />

        /* border */
        <rect y="-267" x="175" height="12" width="1" style="opacity:1;fill:currentColor;" transform="rotate(90)"
          class="ColorScheme-Background" />
      </g>

      <g id="decoration-inactive-topright" transform="translate(-309,99)">
        <path style="opacity:0"
          d="m 564,36 v 44 l 12.99998,1e-5 h 1 c 2.23664,0 4,1.77972 4,4 L 582,106 h 54 l -2e-5,-21.99999 -1e-5,-48 z" />
        <path d="m 564,80 v 26 h 18 V 84 c 0,-2.22028 -1.86709,-4 -4.23529,-4 z" style="opacity:1;fill:currentColor;"
          class="ColorScheme-Background" />
        <path style="opacity:1; fill:currentColor;  "
          d="m 564,79 v 1.038462 h 13.72222 c 2.3609,0 4.22222,1.84817 4.22222,4.153846 V 106 H 583 V 84.192308 C 583,81.336797 580.64306,79 577.72222,79 Z"
          class="ColorScheme-Background" />
      </g>

      <g id="decoration-inactive-bottom" transform="matrix(24.166654,0,0,1.0000002,-13374.993,175.99995)">
        <rect transform="rotate(90)" style="opacity:0" width="66.999947" height="6.0000033" x="120.00002" y="-564" />
        <g transform="matrix(0.18749985,0,0,0.66666287,554.43751,-516.23783)">
          <rect transform="rotate(90)" style="opacity:1;fill:currentColor;" width="7.500041" height="31.999975"
            x="946.86218" y="-51.000019" class="ColorScheme-Background" />
          <rect y="-50.999985" x="954.36224" height="32.000008" width="1.5000083" style="opacity:1;fill:currentColor;"
            transform="rotate(90)" class="ColorScheme-Background" />
        </g>
      </g>

      <g id="decoration-inactive-bottomleft" transform="matrix(-1,0,0,1,674,176)">
        <path style="opacity:0"
          d="m 581.99996,115 c 4e-5,3.27015 -1.32262,5.00006 -4,5.00005 L 566,120.00002 564,120 v 66.99998 l 2.00003,3e-5 70,-2e-5 L 636,115 Z" />
        <path style="opacity:1;fill:currentColor;" d="m 564,115 v 5 h 14 c 3.5904,0 4,-3 4,-5 h -4 z"
          class="ColorScheme-Background" />
        <path d="m 583,115 c 0,4 -1.83831,6 -5,6 h -14 v -1 h 14 c 2.078,0 4,-1 4,-5 z"
          style="opacity:1; fill:currentColor;  " class="ColorScheme-Background" />
      </g>

      <g id="decoration-inactive-right" transform="matrix(1,0,0,17.199966,-309,-1686.9962)">
        <rect style="opacity:0" width="54" height="5.0000062" x="582" y="110" />
        <rect transform="rotate(90)" style="opacity:1;fill:currentColor;" width="5.0000024" height="18.000122"
          x="110.00001" y="-582.00012" ry="0.00012207031" class="ColorScheme-Background" />
        <rect y="-583" x="110" height="1" width="5.0000167" style="opacity:1;fill:currentColor;" transform="rotate(90)"
          class="ColorScheme-Background" />
      </g>

      <g id="decoration-inactive-bottomright" transform="translate(-12)">
        <path
          d="M 285.00012,291.00002 C 285,294 283.54641,296.00006 280.99996,296.00005 L 269,296.00002 267,296 v 66.99998 l 2.00003,3e-5 70,-2e-5 L 339,291 Z"
          style="opacity:0" />
        <path d="m 267,291 v 5 h 14 c 2.53045,0 4,-1.7833 4,-5 h -4.23529 z" style="opacity:1;fill:currentColor;"
          class="ColorScheme-Background" />
        <path
          d="m 285.00012,291.00002 c 0,4 -2.32212,4.99998 -4.10012,4.99998 H 267 v 1 h 13.9 v 0 c 3.1,0 5.1,-2 5.1,-6 z"
          style="opacity:1; fill:currentColor;  " class="ColorScheme-Background" />
      </g>

      <g id="decoration-inactive-topleft" transform="matrix(-1,0,0,1,674,99)">
        <path
          d="m 564,36 v 44 l 12.99998,1e-5 h 1 c 2.23664,0 4,1.77972 4,4 L 582,106 h 54 l -2e-5,-21.99999 -1e-5,-48 z"
          style="opacity:0" />
        <path
          d="M 577.72222,79 C 580.64306,79 583,81.336814 583,84.192344 v 21.807846 h -1.05556 V 84.192344 c 0,-2.305691 -1.86132,-4.153875 -4.22222,-4.153875 H 564 V 79 Z"
          style="opacity:1; fill:currentColor;  " class="ColorScheme-Background" />
        <path style="opacity:1;fill:currentColor;"
          d="m 563.99999,80.000005 v 26.000005 h 18 V 84.000005 c 0,-2.22028 -1.76336,-4 -4,-4 z"
          class="ColorScheme-Background" />
      </g>

      <g id="decoration-inactive-left" transform="matrix(-1,0,0,17.199966,674,-1686.9962)">
        <rect y="110" x="582" height="5.0000062" width="54" style="opacity:0" />
        <rect y="-582" x="110.00001" height="18" width="5.0000024" style="opacity:1;fill:currentColor;"
          transform="rotate(90)" class="ColorScheme-Background" />
        <rect transform="rotate(90)" style="opacity:1;fill:currentColor;" width="5.0000057" height="1" x="110" y="-583"
          class="ColorScheme-Background" />
      </g>

      <g id="decoration-inactive-center">
        <rect transform="rotate(90)" style="opacity:1;fill:currentColor;" width="86.000008" height="145" x="205"
          y="-254.99998" class="ColorScheme-Background" />
      </g>
    </g>

  </g>
</svg>